PathFileType	4	(X/Y/Z)	./resultDataOpenSim/trcMotMarkerGrf/sub06/qtm-13-04.trc
DataRate	CameraRate	NumFrames	NumMarkers	Units	OrigDataRate	OrigDataStartFrame	OrigNumFrames
250.000000	250.000000	11	24	m	250.000000	467	533
Frame#	Time	L.Toe.Tip			R.Toe.Tip			L.Ankle.Lat			R.Ankle.Lat			L.Ankle.Med			R.Ankle.Med			L.Heel			R.Heel			L.Knee.Lat			R.Knee.Lat			L.Knee.Med			R.Knee.Med			L.Thigh.Upper			R.Thigh.Upper			L.ASIS			R.ASIS			V.Sacral			L.Acromium			R.Acromium			C7			L.Elbow			R.Elbow			L.Wrist.Lat			R.Wrist.Lat
		X1	Y1	Z1	X2	Y2	Z2	X3	Y3	Z3	X4	Y4	Z4	X5	Y5	Z5	X6	Y6	Z6	X7	Y7	Z7	X8	Y8	Z8	X9	Y9	Z9	X10	Y10	Z10	X11	Y11	Z11	X12	Y12	Z12	X13	Y13	Z13	X14	Y14	Z14	X15	Y15	Z15	X16	Y16	Z16	X17	Y17	Z17	X18	Y18	Z18	X19	Y19	Z19	X20	Y20	Z20	X21	Y21	Z21	X22	Y22	Z22	X23	Y23	Z23	X24	Y24	Z24

467	1.864	1.7256311	0.0340596	-0.032146745	1.2544539	0.091658952	0.1335426	1.6012399	0.066315449	-0.063674165	1.2316965	0.23023987	0.15959449	1.599563	0.082115633	0.022678227	1.2737348	0.22299388	0.080978048	1.523787	0.039359318	-0.023839149	1.2019831	0.26960437	0.095754403	1.6529187	0.43902503	-0.080343525	1.5572202	0.42441852	0.20401479	1.6111722	0.43976046	0.03470206	1.559568	0.40355878	0.072460215	1.5495473	0.81980873	-0.15684282	1.4550339	0.78583379	0.17906022	1.6079887	0.86275665	-0.098354428	1.5766135	0.84612596	0.14704098	1.4028044	0.92477108	0.007607716	1.5187284	1.3278503	-0.17987787	1.4945648	1.3306475	0.18384364	1.4247653	1.3645014	-0.0054621228	1.4527601	1.0156285	-0.21817586	1.4621167	1.0101489	0.26342897	1.5724601	0.80510629	-0.26078077	1.6773506	0.88912627	0.25496974
468	1.868	1.7255875	0.034069387	-0.032142336	1.2708404	0.092348859	0.13399999	1.6011631	0.066380333	-0.063688073	1.2452872	0.23025369	0.16002491	1.5995915	0.082303392	0.022629456	1.2869377	0.22366376	0.081672186	1.5237695	0.039409932	-0.023679695	1.2138899	0.26906994	0.096847218	1.6538711	0.43905926	-0.080136914	1.5682201	0.42741545	0.20393478	1.6116166	0.440152	0.034784031	1.5706925	0.40620766	0.072350558	1.5542485	0.82063788	-0.15704355	1.4597484	0.7882252	0.1794595	1.6130313	0.86406413	-0.098850476	1.5819794	0.84833183	0.14682701	1.4081408	0.9264083	0.0072121245	1.524308	1.3298355	-0.17999528	1.4997651	1.3325485	0.18380245	1.4300914	1.3661218	-0.0056776423	1.4603195	1.0166316	-0.21823556	1.4654602	1.0121492	0.26226327	1.5836261	0.80777864	-0.25929364	1.6778944	0.88690332	0.25579417
469	1.872	1.725555	0.034086113	-0.032129744	1.2872719	0.092894788	0.13446542	1.6011196	0.06649329	-0.063712853	1.2594794	0.22994013	0.16050688	1.5996496	0.082510839	0.02259296	1.300183	0.22409611	0.082272506	1.5237871	0.039514527	-0.023493009	1.2260677	0.26834356	0.097504536	1.6547301	0.43909058	-0.079930301	1.5791776	0.43044801	0.20379947	1.6121056	0.44054705	0.034900249	1.5816679	0.40893886	0.072204977	1.5591934	0.82140991	-0.15716824	1.4648933	0.79056571	0.17981085	1.6180038	0.8653702	-0.099332113	1.5872268	0.85055921	0.14652465	1.4134301	0.9280497	0.0068374698	1.5298865	1.3318845	-0.18012027	1.5049747	1.3344063	0.18372148	1.435415	1.3677282	-0.005878643	1.4678602	1.0176604	-0.21832244	1.4685663	1.0141701	0.26113754	1.5949018	0.81052487	-0.25775973	1.6783427	0.88477438	0.25665063
470	1.876	1.7255392	0.034105254	-0.032114998	1.3035899	0.093243211	0.13499723	1.6010991	0.066635391	-0.063749229	1.2741333	0.22926253	0.16104125	1.5997273	0.082720697	0.022564147	1.3132961	0.22431595	0.082529649	1.5238109	0.039660487	-0.023372015	1.238464	0.2673645	0.097753034	1.6554964	0.43911958	-0.079737268	1.5901034	0.43349827	0.20361566	1.6125856	0.44091791	0.035033519	1.5926166	0.41175688	0.0719966	1.5640895	0.82215176	-0.15727355	1.4705433	0.7928205	0.18011105	1.6229212	0.86667488	-0.099807413	1.5922483	0.8528052	0.14610474	1.4186932	0.9296791	0.0064797627	1.5354162	1.3339331	-0.18022916	1.5101842	1.3361998	0.18358215	1.4407395	1.3693118	-0.0060679745	1.4753844	1.018707	-0.21844859	1.4714301	1.0162247	0.26001147	1.6063978	0.81331119	-0.25618082	1.6787042	0.88273843	0.25753248
471	1.88	1.7255376	0.034121123	-0.032104713	1.3197759	0.09338875	0.13560365	1.6010803	0.066781978	-0.063788777	1.2887904	0.22829744	0.16159422	1.5997584	0.082902476	0.022537056	1.3262794	0.22432832	0.082466275	1.5238285	0.039826971	-0.023311327	1.2509559	0.26608339	0.097854184	1.6561888	0.43914967	-0.07956385	1.6010004	0.43655911	0.20339904	1.6131237	0.44125277	0.035192646	1.6036589	0.41466327	0.071707196	1.5685112	0.82289623	-0.15743308	1.4771677	0.79486188	0.18035743	1.62781	0.86797591	-0.10029004	1.5970844	0.85505258	0.14557878	1.4240072	0.9312581	0.0061388219	1.540878	1.3359165	-0.18030833	1.5153697	1.3379302	0.18340107	1.4460662	1.37087	-0.0062435749	1.4828965	1.0197655	-0.21861656	1.4741989	1.0183173	0.2588811	1.6181082	0.81613979	-0.25456509	1.6789726	0.88079214	0.25842401
472	1.884	1.7255403	0.034130419	-0.03210326	1.3359236	0.093367915	0.13625885	1.6010506	0.066918357	-0.063820346	1.3030141	0.22719442	0.16211111	1.5996283	0.083021809	0.02250681	1.3392767	0.22413111	0.082319361	1.5238399	0.039997849	-0.023260065	1.2634823	0.26449982	0.097989581	1.6568184	0.43918222	-0.079420726	1.6118536	0.43961772	0.2031623	1.6137861	0.44154661	0.035385111	1.6147816	0.41766682	0.071350706	1.5724538	0.82365219	-0.15765016	1.4855532	0.79651358	0.18050547	1.6326916	0.86926505	-0.10078067	1.6019519	0.85727796	0.14500708	1.4294711	0.93276657	0.0058286687	1.5462885	1.3378155	-0.18035903	1.5204163	1.3396219	0.18319872	1.4513922	1.372391	-0.0064036154	1.4903942	1.0208308	-0.21881765	1.4771519	1.0204343	0.25779477	1.6297778	0.8190548	-0.25293665	1.6791428	0.87892645	0.25931733
473	1.888	1.7255371	0.034133866	-0.032110739	1.3521187	0.093216515	0.1369404	1.601005	0.067042261	-0.063837575	1.3167431	0.22603711	0.1625606	1.5992644	0.083068726	0.02247424	1.3524096	0.2237309	0.082294982	1.5238493	0.040165535	-0.02318373	1.2760684	0.26265567	0.098182082	1.6573795	0.43921733	-0.079322484	1.6226442	0.44265532	0.20290886	1.6145313	0.44180118	0.035589259	1.6259826	0.42078131	0.070950939	1.5763704	0.8244083	-0.15785479	1.4958484	0.79778748	0.18051176	1.6375691	0.87053336	-0.10126829	1.6070508	0.85946542	0.144449	1.4351183	0.93424093	0.0055722962	1.5516699	1.3396471	-0.18038728	1.5251117	1.3413155	0.18298031	1.4567124	1.3738578	-0.0065457445	1.4978574	1.0218977	-0.21903095	1.4804149	1.022558	0.25680202	1.6410779	0.82209992	-0.25132321	1.6792205	0.87713188	0.26021729
474	1.892	1.725526	0.034135858	-0.032123248	1.3683866	0.092950235	0.13763377	1.6009428	0.06716148	-0.063839849	1.3301877	0.22481114	0.1629488	1.598762	0.08309142	0.02244616	1.3657027	0.22314023	0.082449066	1.5238626	0.040328913	-0.023078584	1.2887324	0.26060348	0.09841944	1.6578641	0.43925566	-0.079273256	1.6333528	0.4456626	0.20263338	1.6151638	0.44201908	0.035746214	1.6372405	0.42402216	0.070517787	1.5805839	0.82516076	-0.15799344	1.5072696	0.79893944	0.18035591	1.6424264	0.87178084	-0.1017453	1.6123817	0.86161212	0.14391667	1.4408443	0.93572206	0.0053856485	1.5570318	1.3414305	-0.18039799	1.5293489	1.3430305	0.18274242	1.46202	1.3752641	-0.006667532	1.5052533	1.0229656	-0.219227	1.4837142	1.0246397	0.25589446	1.651969	0.82527132	-0.24972373	1.6792141	0.87540666	0.26113168
475	1.896	1.7255122	0.034141128	-0.032134724	1.3847157	0.092573516	0.1383272	1.6008694	0.067286322	-0.063830565	1.3435521	0.22347628	0.16329997	1.5983436	0.083171711	0.022427853	1.3791186	0.22236979	0.0827281	1.523881	0.040492387	-0.022961964	1.3014413	0.25836821	0.098720392	1.6582748	0.43929689	-0.079263497	1.6439484	0.44864212	0.20232537	1.615491	0.44220429	0.035813797	1.6482277	0.4273838	0.07005474	1.585044	0.82591165	-0.15806994	1.5193301	0.80011941	0.1800312	1.6472486	0.87301288	-0.10221099	1.6178416	0.86372091	0.14339353	1.4464587	0.93718456	0.0052627868	1.5623769	1.3431735	-0.18039718	1.5333908	1.3447182	0.18249454	1.4673108	1.3766127	-0.0067756127	1.512569	1.0240353	-0.2193897	1.4866091	1.026593	0.25501766	1.6627224	0.82852551	-0.24810735	1.6791286	0.87375447	0.26207183
476	1.9	1.7255019	0.034151149	-0.032139494	1.4010984	0.092092579	0.13901327	1.6007972	0.067421129	-0.06381698	1.3569428	0.22200929	0.16363578	1.5981402	0.083344121	0.022416735	1.3926156	0.22142755	0.083053352	1.5238987	0.040668365	-0.022857254	1.314167	0.25594139	0.099087088	1.6586236	0.439338	-0.079280613	1.6544044	0.45159591	0.20197602	1.6155612	0.44238271	0.035847295	1.6585588	0.43082368	0.069566985	1.5895666	0.82665567	-0.15811403	1.5316736	0.80127866	0.17966033	1.652042	0.87422503	-0.10266141	1.62337	0.86579522	0.14286514	1.4518463	0.93857607	0.005181286	1.5677093	1.3448748	-0.18039553	1.5376957	1.3462894	0.18225972	1.4725884	1.377905	-0.0068915368	1.5198381	1.0250991	-0.21954351	1.4889747	1.0283894	0.2541332	1.6735821	0.83182494	-0.24644722	1.678975	0.87217308	0.26306593
477	1.904	1.7255004	0.034164037	-0.032135319	1.4175505	0.091517537	0.1396871	1.6007393	0.067562782	-0.063808914	1.3703966	0.22040205	0.16396336	1.5980854	0.083564331	0.022404994	1.4061709	0.22031967	0.083371473	1.5239123	0.040869856	-0.022780893	1.3269295	0.25330865	0.099480093	1.6589232	0.4393732	-0.079316491	1.6647317	0.45451734	0.2015842	1.6155284	0.4426086	0.035962173	1.6683239	0.43429942	0.069058658	1.5940032	0.82738407	-0.15815566	1.5430944	0.80243421	0.17946697	1.6568196	0.87540144	-0.10308845	1.6289404	0.86783803	0.14232126	1.457045	0.93987732	0.0051242253	1.5730365	1.3465287	-0.18040545	1.5424312	1.347704	0.18204726	1.4778573	1.3791396	-0.0070382133	1.5271161	1.0261405	-0.21974084	1.4911472	1.0301006	0.25325241	1.6846162	0.83515184	-0.24473769	1.6787743	0.87065273	0.26414008
